<svg xmlns="http://www.w3.org/2000/svg" width="512" height="512" fill-rule="evenodd" clip-rule="evenodd" image-rendering="optimizeQuality" shape-rendering="geometricPrecision" text-rendering="geometricPrecision"><g fill="#e4e8eb"><path d="M51.28 334.37c-3.32 0-6-2.68-6-6 0-7.74-.07-15.5-.13-23.02-.51-58.53-.98-113.82 31.16-146.25 19.85-20.01 50.33-29.74 93.19-29.74 3.31 0 6 2.68 6 6 0 3.31-2.69 6-6 6-2.04 0-4.03.02-6 .07v42.35c2.16-.08 4.21-.09 6.1-.05 3.32.05 5.96 2.79 5.9 6.1-.06 3.32-2.8 5.92-6.11 5.9-20.67-.36-55.56 4.86-56.88 44.08v88.56c0 3.32-2.69 6-6 6-3.32 0-6-2.68-6-6v-6H57.27c0 2 .01 4 .01 6 0 3.32-2.69 6-6 6zM405.49 334.37c-3.31 0-6-2.68-6-6v-88.56c-1.32-39.22-36.2-44.45-56.88-44.08-3.28.02-6.05-2.58-6.11-5.9a5.993 5.993 0 0 1 5.9-6.1c1.89-.04 3.94-.03 6.1.05v-42.35c-1.96-.05-3.97-.07-6-.07-3.31 0-6-2.69-6-6 0-3.32 2.69-6 6-6 42.86 0 73.34 9.73 93.18 29.75 32.15 32.42 31.68 87.71 31.17 146.25-.06 7.51-.13 15.27-.13 23.01 0 3.32-2.68 6-6 6-3.31 0-6-2.68-6-6 0-2 0-4 .01-6h-43.24v6c0 3.32-2.69 6-6 6zm-27.95-144.96z"/></g><path fill="#fc932b" d="M256.52 391.95c-12.79 0-21.33-4.69-23.36-5.94-2.3-.61-12.06-3.55-21.82-11.29-10.13-8.03-22.12-22.93-21.71-48.29 0-.17.02-.33.05-.49.57-3.05 5.94-29.96 16.18-35.28 7.88-4.1 8.13-10.21 8.31-14.68a2.861 2.861 0 0 1 5.1-1.67c.39.48 9.23 11.76 7.27 28.64 1.07 1.19 2.48 2.28 3.3 2.28.58 0 2.44-1.78 3.42-9.57-1.19-4.24-7.86-29.37-3.15-43.87a2.857 2.857 0 0 1 2.67-1.98c1.21-.03 2.33.73 2.75 1.88.05.14 5.18 13.75 14.95 15.65.03 0 .07.01.1.02-1.23-2.32-4.5-6.46-8.07-10.06-.19-.2-.35-.42-.48-.66-.37-.68-8.92-16.76-4.41-30.76 2.08-6.45 6.55-11.37 13.29-14.64 1.13-.54 2.48-.3 3.33.61.86.91 1.03 2.27.43 3.37-.38.71-9.23 17.97 19.03 34.8 13.64 8.12 21.38 23.29 22.41 43.87.42 8.6-.39 16.4-1.2 21.65 2.38-3.07 5.19-9.06 6.83-20.7.16-1.1.93-2.01 1.99-2.34s2.21-.02 2.96.8c.38.41 9.33 10.23 13.56 24.65 3.96 13.5 4.34 33.59-16.33 52.64-15.39 14.18-31.33 21.36-47.4 21.36z"/><path fill="#ffc738" d="M256.52 391.95c-12.79 0-21.33-4.69-23.36-5.94-1.61-.43-6.87-2-13.24-5.55.04-2.38.21-4.68.51-6.82 1.26-8.98 8.28-13.89 8.57-14.1.18-.12.38-.23.58-.31 25.63-10.79 23.93-34.95 23.91-35.2a3.223 3.223 0 0 1 5.35-2.68c.29.25 7.06 6.33 11.27 16.21 3.41 8.02 5.64 19.9-1.05 33.39 2.29-1.85 5.2-5.36 8.42-11.69.85-1.66 3.44-6.74 7.67-6.08 4.51.68 5.6 7.1 5.95 9.2.81 4.75.98 11.78.05 18.29-11.37 7.5-22.97 11.28-34.63 11.28z"/><path fill="#565a55" d="M278.52 139.95h-45.04c-3.32 0-6-2.69-6-6v-37.4c0-3.31 2.68-6 6-6 3.31 0 6 2.69 6 6v31.4h33.04v-31.4c0-3.31 2.69-6 6-6s6 2.69 6 6v37.4c0 3.31-2.69 6-6 6z"/><path fill="#cad0d7" d="M122.6 361.93H32.75c-3.32 0-6-2.69-6-6v-27.56c0-3.31 2.68-6 6-6h89.85c3.31 0 6 2.69 6 6v27.56c0 3.31-2.69 6-6 6z"/><path fill="#1791e6" d="M301.05 200.33h-90.1c-3.32 0-6-2.69-6-6v-60.38c0-3.32 2.68-6 6-6h90.1c3.31 0 6 2.68 6 6v60.38c0 3.31-2.68 6-6 6z"/><path fill="#cad0d7" d="M479.25 361.93H389.4c-3.31 0-6-2.69-6-6v-27.56c0-3.31 2.69-6 6-6h89.85c3.31 0 6 2.69 6 6v27.56c0 3.31-2.68 6-6 6z"/><path fill="#fff" d="M232.71 180.85c-3.32 0-6-2.69-6-6v-21.43c0-3.31 2.68-6 6-6 3.31 0 6 2.69 6 6v21.43c0 3.31-2.69 6-6 6z"/><path fill="#b6bbc2" d="M139.74 391.83H15.6c-3.31 0-6-2.69-6-6v-29.9c0-3.32 2.69-6 6-6h124.14a6 6 0 0 1 6.01 6v29.9c0 3.31-2.69 6-6.01 6zM496.4 391.83H372.25c-3.31 0-6-2.69-6-6v-29.9c0-3.32 2.69-6 6-6H496.4c3.31 0 6 2.68 6 6v29.9c0 3.31-2.69 6-6 6z"/><path fill="#676b66" d="M506.04 421.45H5.96c-3.32 0-6-2.69-6-6v-29.62c0-3.31 2.68-6 6-6h500.08c3.31 0 6 2.69 6 6v29.62c0 3.31-2.69 6-6 6z"/><path fill="#1aa1ff" d="M206.16 210.87h-31.87c-5.95 0-10.79-4.84-10.79-10.79V128.2c0-5.96 4.84-10.8 10.79-10.8h31.87c5.95 0 10.79 4.84 10.79 10.8v71.88c0 5.95-4.84 10.79-10.79 10.79zm131.55 0h-31.87c-5.95 0-10.79-4.84-10.79-10.79V128.2c0-5.96 4.84-10.8 10.79-10.8h31.87c5.95 0 10.79 4.84 10.79 10.8v71.88c0 5.95-4.84 10.79-10.79 10.79z"/></svg>