<svg xmlns="http://www.w3.org/2000/svg" xml:space="preserve" width="512" height="512" style="enable-background:new 0 0 512 512" viewBox="0 0 60 60"><g fill="#fff"><path d="M1.626 46.231a8.691 8.691 0 0 0 6.551 13.753c.172.011.344.016.514.016a8.671 8.671 0 0 0 8.526-10.363l11.324-11.323 1.272 1.273a2.182 2.182 0 0 0 2.48.448 1.4 1.4 0 0 1 1.574.266 1.384 1.384 0 0 1 .246 1.585 2.21 2.21 0 0 0 .49 2.48l14.3 14.3a4.548 4.548 0 0 0 6.424 0l3.34-3.34a4.548 4.548 0 0 0 0-6.424l-14.361-14.37a2.2 2.2 0 0 0-2.47-.392 1.352 1.352 0 0 1-1.53-.278 1.377 1.377 0 0 1-.4-.953 1.276 1.276 0 0 1 .119-.594 2.344 2.344 0 0 0-.452-2.5l-1.263-1.269L49.637 17.22a8.687 8.687 0 0 0 10.278-9.734 2.292 2.292 0 0 0-3.887-1.295l-2.516 2.517a1.03 1.03 0 0 1-.578.274.447.447 0 0 1-.331-.06L51.16 7.48a.544.544 0 0 1-.16-.386.555.555 0 0 1 .171-.4l2.641-2.719a2.305 2.305 0 0 0 .553-2.375A2.192 2.192 0 0 0 52.593.1a8.686 8.686 0 0 0-9.808 10.266L28.89 24.256 11.033 6.409l-.478-1.426a3.27 3.27 0 0 0-1.29-1.715L4.906.359A2.145 2.145 0 0 0 2.2.633L.633 2.2a2.145 2.145 0 0 0-.275 2.7l2.916 4.37a3.246 3.246 0 0 0 1.688 1.274l1.447.485 17.846 17.86-13.9 13.894a8.673 8.673 0 0 0-8.729 3.448zm36.533-15.007a.442.442 0 0 1 .051.259 3.2 3.2 0 0 0-.3 1.426 3.361 3.361 0 0 0 4.739 3.058c.1-.044.21-.054.244-.021l14.358 14.369a2.546 2.546 0 0 1 0 3.6l-3.34 3.34a2.548 2.548 0 0 1-3.6 0l-14.3-14.3a.335.335 0 0 1-.1-.2 3.368 3.368 0 0 0-4.511-4.511.332.332 0 0 1-.186-.082L29.955 36.9l6.94-6.94zM7.657 9.453a1.012 1.012 0 0 0-.388-.241l-1.692-.567a1.268 1.268 0 0 1-.645-.49L2.021 3.793a.139.139 0 0 1 .026-.176l1.57-1.57a.14.14 0 0 1 .183-.025l4.351 2.9a1.289 1.289 0 0 1 .5.674l.561 1.67a1.012 1.012 0 0 0 .241.388L27.475 25.67l-1.8 1.8zm3.719 35.137 33.216-33.2a1 1 0 0 0 .259-.968A6.686 6.686 0 0 1 52.3 2.079a.193.193 0 0 1 .166.152.336.336 0 0 1-.082.341l-2.641 2.72a2.547 2.547 0 0 0 0 3.6l1.442 1.44a2.39 2.39 0 0 0 1.993.633 3.046 3.046 0 0 0 1.745-.846l2.517-2.517a.285.285 0 0 1 .3-.069.275.275 0 0 1 .194.23 6.684 6.684 0 0 1-1.891 5.655 6.689 6.689 0 0 1-6.457 1.73 1 1 0 0 0-.969.258l-33.2 33.2a1 1 0 0 0-.26.963A6.676 6.676 0 0 1 8.3 57.988a6.658 6.658 0 0 1-4.882-2.553 6.689 6.689 0 0 1 5.251-10.816 6.729 6.729 0 0 1 1.741.23.994.994 0 0 0 .966-.259z" data-original="#000000"/><path d="M4.39 51.3a4.306 4.306 0 1 0 4.3-4.3 4.318 4.318 0 0 0-4.3 4.3zm4.3-2.3a2.306 2.306 0 1 1-2.3 2.3A2.316 2.316 0 0 1 8.687 49zm41.601 5.324a1 1 0 0 0 1.414-1.414l-9.618-9.618a1 1 0 0 0-1.414 1.414zm2.809-2.809a1 1 0 0 0 1.415-1.415L44.9 40.482a1 1 0 0 0-1.418 1.418z" data-original="#000000"/></g></svg>