<svg xmlns="http://www.w3.org/2000/svg" xml:space="preserve" width="512" height="512" style="enable-background:new 0 0 512 512"><g fill-rule="evenodd" clip-rule="evenodd"><path fill="#67b7d1" d="M235.55 200.479h156.868v74H235.55c-29.22 0-52.998 23.777-52.998 52.998v29.739h-74.004v-29.739c-.001-70.029 56.974-126.998 127.002-126.998zm210.242-50.504h47.207v175.008h-47.207zM304.82 157.5h-30.982V89.696l5.054 1.38a39.611 39.611 0 0 0 10.437 1.402c3.527 0 7.033-.47 10.435-1.401l5.056-1.384zm22.889-94.353c.92-3.407 1.4-6.914 1.4-10.444s-.481-7.037-1.4-10.444l-1.361-5.042h80.912v30.972h-80.912zm-75.365 5.042h-80.936V37.217h80.936l-1.384 5.056a39.476 39.476 0 0 0 0 20.86z" data-original="#a4d4ff"/><path fill="#1f4571" d="M76.338 185.046c-4.028-5.124-5.449-11.689-3.92-18.008a6.987 6.987 0 0 0-.809-5.284l-.061-.099a6.99 6.99 0 0 0-5.458-3.346 6.654 6.654 0 0 0-.532-.024 7.002 7.002 0 0 0-5.369 2.518 21 21 0 0 1-16.159 7.566c-11.604 0-21.029-9.439-21.029-21.038 0-11.105 8.667-20.328 19.74-20.996a6.977 6.977 0 0 0 5.148-2.753 6.965 6.965 0 0 0 1.271-5.698c-1.609-7.524.88-15.058 6.649-20.159 5.793-5.115 13.58-6.673 20.831-4.15 1.92.668 4.028.47 5.793-.541a7.024 7.024 0 0 0 3.379-4.729c1.92-9.839 10.597-16.982 20.648-16.982 6.014 0 11.543 2.452 15.58 6.903 4.042 4.461 5.943 10.22 5.35 16.22a7.001 7.001 0 0 0 4.818 7.345A20.975 20.975 0 0 1 146 116.082a6.996 6.996 0 0 0 4.202 4.616c2.037.8 4.338.588 6.206-.56 6.541-4.028 14.502-4.169 21.292-.376 6.729 3.76 10.738 10.606 10.738 18.314 0 6.644-3.031 12.747-8.329 16.756-5.322 4.028-12.051 5.299-18.45 3.487a6.994 6.994 0 0 0-8.352 4.004 21.091 21.091 0 0 1-12.62 11.717 21.006 21.006 0 0 1-17.1-1.59 7.01 7.01 0 0 0-6.249-.32 7.008 7.008 0 0 0-4.009 4.795c-2.259 9.51-10.681 16.154-20.469 16.154-6.489-.001-12.513-2.928-16.522-8.033zM292.85 9.068h-7.041c-13.178 1.055-24.726 7.982-32.03 18.145h-85.372a7 7 0 0 0-6.997 7.002v36.976a6.997 6.997 0 0 0 6.997 7.002h85.372a44.28 44.28 0 0 0 10.06 10.065V153.5h-28.29a7 7 0 0 0-7.002 7.002v30.153c-72.3 3.656-129.999 63.628-129.999 136.822v31.701l-9.698 31.983a6.996 6.996 0 0 0 6.695 9.03h100.002a6.999 6.999 0 0 0 5.623-2.828 7.024 7.024 0 0 0 1.078-6.202l-9.698-31.983v-31.701c0-23.706 19.288-42.999 42.999-42.999h152.868v16.987a7.006 7.006 0 0 0 3.581 6.108l47.38 26.516a6.988 6.988 0 0 0 3.412.894H496a7.002 7.002 0 0 0 6.997-7.002V146.973a7.002 7.002 0 0 0-6.997-6.997h-53.21c-1.19 0-2.372.306-3.412.889l-47.38 26.52a6.995 6.995 0 0 0-3.581 6.108v16.982H350.11v-29.974a6.998 6.998 0 0 0-7.002-7.002h-28.29V88.258a44.083 44.083 0 0 0 10.07-10.065h85.372a7.002 7.002 0 0 0 6.997-7.002V34.215c0-3.863-3.138-7.002-6.997-7.002h-85.372c-7.316-10.162-18.862-17.089-32.038-18.145zM124.189 187.784a35.1 35.1 0 0 0 21.001-.489 35.171 35.171 0 0 0 18.319-14.389c8.86 1.012 17.74-1.388 25.043-6.908 8.828-6.677 13.886-16.855 13.886-27.923 0-12.851-6.687-24.266-17.909-30.534-8.851-4.95-18.926-5.854-28.139-2.762a34.944 34.944 0 0 0-14.95-14.3c-.442-7.985-3.6-15.669-9.03-21.66a35.12 35.12 0 0 0-25.951-11.496c-14.258 0-26.868 8.644-32.261 21.349-9.905-1.313-19.876 1.684-27.659 8.564-7.75 6.847-11.938 16.333-11.867 26.327-14.86 4.113-25.669 17.763-25.669 33.767 0 19.321 15.707 35.037 35.028 35.037a35.035 35.035 0 0 0 14.521-3.143c1.087 5.195 3.379 10.145 6.776 14.474 6.682 8.498 16.724 13.378 27.532 13.378 13.537.001 25.499-7.627 31.329-19.292zm281.889 230.491c-5.327 4.028-12.046 5.299-18.45 3.487a7.004 7.004 0 0 0-8.348 4.005 21.122 21.122 0 0 1-12.62 11.721c-5.68 1.925-11.91 1.346-17.1-1.591a7.012 7.012 0 0 0-6.249-.324 6.984 6.984 0 0 0-4.009 4.8c-2.264 9.51-10.672 16.149-20.474 16.149-6.489 0-12.507-2.927-16.521-8.027-4.019-5.125-5.449-11.689-3.915-18.008a7.013 7.013 0 0 0-.814-5.289l-.057-.094a7.008 7.008 0 0 0-5.99-3.369 7.016 7.016 0 0 0-5.374 2.513 20.984 20.984 0 0 1-16.159 7.567c-11.599 0-21.029-9.439-21.029-21.039 0-11.105 8.668-20.328 19.74-20.996a6.968 6.968 0 0 0 5.148-2.748 6.962 6.962 0 0 0 1.271-5.703c-1.6-7.524.88-15.058 6.649-20.154 5.792-5.12 13.58-6.673 20.831-4.15 1.92.663 4.033.47 5.793-.546a6.986 6.986 0 0 0 3.379-4.729c1.92-9.835 10.601-16.978 20.647-16.978 6.014 0 11.543 2.452 15.58 6.903 4.042 4.456 5.943 10.216 5.355 16.215a7.01 7.01 0 0 0 4.818 7.35 20.974 20.974 0 0 1 13.787 14.291 7.028 7.028 0 0 0 4.193 4.616 7.032 7.032 0 0 0 6.221-.56c6.541-4.028 14.498-4.169 21.288-.376 6.729 3.76 10.743 10.602 10.743 18.309-.001 6.642-3.031 12.75-8.334 16.755zm4.423-47.286c11.218 6.268 17.909 17.679 17.909 30.529 0 11.072-5.063 21.25-13.891 27.922-7.289 5.52-16.178 7.924-25.038 6.913a35.134 35.134 0 0 1-18.323 14.385 35.06 35.06 0 0 1-21.001.494c-5.83 11.66-17.787 19.288-31.329 19.288-10.809 0-20.85-4.875-27.527-13.377-3.402-4.329-5.684-9.275-6.771-14.474a35.018 35.018 0 0 1-14.531 3.143c-19.321 0-35.028-15.716-35.028-35.037 0-15.999 10.809-29.654 25.669-33.767-.071-9.99 4.122-19.481 11.872-26.327 7.778-6.875 17.735-9.872 27.659-8.559 5.388-12.705 17.999-21.349 32.256-21.349a35.103 35.103 0 0 1 25.951 11.496 35.142 35.142 0 0 1 9.03 21.655 34.925 34.925 0 0 1 14.949 14.305c9.214-3.098 19.283-2.19 28.144 2.76zM202.55 469.447v26.483a7 7 0 1 1-13.999 0v-26.483a6.997 6.997 0 0 1 6.997-7.002 6.998 6.998 0 0 1 7.002 7.002zm-100.002 0v26.483a7 7 0 0 1-7.002 7.002c-3.859 0-6.997-3.139-6.997-7.002v-26.483a7.002 7.002 0 0 1 6.997-7.002 6.998 6.998 0 0 1 7.002 7.002zm50.001 0v26.483a7 7 0 1 1-13.999 0v-26.483a6.998 6.998 0 0 1 7.002-7.002 6.997 6.997 0 0 1 6.997 7.002zm50.001-51.911v26.483a6.997 6.997 0 0 1-7.002 6.997 6.996 6.996 0 0 1-6.997-6.997v-26.483a6.997 6.997 0 0 1 6.997-7.002 6.998 6.998 0 0 1 7.002 7.002zm-100.002 0v26.483a6.997 6.997 0 0 1-7.002 6.997 7.001 7.001 0 0 1-6.997-6.997v-26.483a7.002 7.002 0 0 1 6.997-7.002 6.998 6.998 0 0 1 7.002 7.002zm50.001 0v26.483a6.996 6.996 0 0 1-6.997 6.997 6.997 6.997 0 0 1-7.002-6.997v-26.483a6.998 6.998 0 0 1 7.002-7.002 6.997 6.997 0 0 1 6.997 7.002zm336.45-96.553h-39.207V153.975h39.207zm-86.577-143.386 33.367-18.681v157.127l-33.367-18.686zM235.55 270.479c-31.428 0-56.998 25.57-56.998 56.998v25.739h-66.004v-25.739c0-67.821 55.182-122.997 123.002-122.997h152.868v66H235.55zM104.99 386.192l5.75-18.977h69.618l5.75 18.977zm231.121-218.689v22.972h-93.56v-22.972zm-58.273-72.568a43.554 43.554 0 0 0 22.982 0V153.5h-22.982zm11.491-72.004c16.422 0 29.781 13.354 29.781 29.772s-13.359 29.772-29.781 29.772c-16.408 0-29.767-13.354-29.767-29.772s13.359-29.772 29.767-29.772zM175.408 64.189V41.216h71.693c-1.002 3.661-1.544 7.51-1.544 11.486s.541 7.825 1.544 11.486h-71.693zm227.851-22.973v22.973H331.57c.988-3.661 1.539-7.51 1.539-11.486s-.551-7.825-1.539-11.486h71.689z" data-original="#1f4571"/></g></svg>