<svg xmlns="http://www.w3.org/2000/svg" xml:space="preserve" width="512" height="512" style="enable-background:new 0 0 512 512" viewBox="0 0 1500 1500"><g fill="#67b7d1" style="fill:none;stroke:#333;stroke-width:21.688;stroke-linecap:round;stroke-linejoin:round;stroke-miterlimit:10"><path d="M1254.735 1241.487H1031.94l-46.956.048c-51.963.515-94.324 43.139-94.324 95.217H1350c0-52.396-42.87-95.265-95.265-95.265zm-202.144-163.17c-1.045 42.931 30.333 77.764 67.752 77.764 37.418 0 67.752-34.816 67.752-77.764 0 0-4.043-66.755-67.4-133.289-.184-.193-.472-.229-.645-.026-4.769 5.594-66.126 78.594-67.459 133.315z" data-original="#000000"/><path d="M981.588 1043.052c-2.141 87.931 62.129 159.276 138.768 159.276s138.768-71.31 138.768-159.276c0 0-8.281-136.728-138.048-273.001-.377-.396-.966-.469-1.321-.054-9.768 11.457-135.438 160.976-138.167 273.055z" data-original="#000000"/></g><path fill="#67b7d1" d="M208.052 1108.442v52.683c0 101.071 82.694 183.765 183.765 183.765h55.022m-112.821-236.454v41.507c0 38.101 31.174 69.275 69.275 69.275h43.546m331.618 120.742H496.821m406.848-125.673H496.821m378.09 0h28.758M744.475 1339.96l82.817-.389m-380.453-130.192v135.488c0 13.745 11.246 24.991 24.991 24.991s24.991-11.246 24.991-24.991v-135.488c0-13.745-11.246-24.991-24.991-24.991s-24.991 11.246-24.991 24.991z" data-original="#000000" style="fill:none;stroke:#333;stroke-width:21.688;stroke-linecap:round;stroke-linejoin:round;stroke-miterlimit:10"/><g fill="#67b7d1" style="fill:none;stroke:#333;stroke-width:21.688;stroke-linecap:round;stroke-linejoin:round;stroke-miterlimit:10"><path d="M330.565 835.202v215.586" data-original="#000000"/><circle cx="269.015" cy="730.387" r="119.015" data-original="#000000"/><path d="M207.465 414.87v213.635M331.998 414.87v214.525M201.271 414.87h135.488c13.745 0 24.991-11.246 24.991-24.991s-11.246-24.991-24.991-24.991H201.271c-13.745 0-24.991 11.246-24.991 24.991s11.246 24.991 24.991 24.991zm4.761 631.769V831.382m130.727 219.406H201.271c-13.745 0-24.991 11.246-24.991 24.991s11.246 24.991 24.991 24.991h135.488c13.745 0 24.991-11.246 24.991-24.991s-11.246-24.991-24.991-24.991z" data-original="#000000"/><circle cx="269.015" cy="730.387" r="44.582" data-original="#000000"/></g><path fill="none" stroke="#000" stroke-linecap="round" stroke-linejoin="round" stroke-miterlimit="1" stroke-width="21.688" d="M505.472 463.735V325.383c0-38.101-31.174-69.275-69.275-69.275l-34.924-.294c-38.101 0-69.275 31.174-69.275 69.275v39.799" data-original="#333333" style="stroke-width:21.688;stroke-linecap:round;stroke-linejoin:round;stroke-miterlimit:10"/><path fill="none" stroke="#000" stroke-linecap="round" stroke-linejoin="round" stroke-miterlimit="1" stroke-width="21.688" d="M206.032 364.888v-50.981c0-101.071 82.694-183.765 183.765-183.765h57.582c62.895 0 118.673 32.022 151.837 80.568 0 0 22.733 34.334 26.986 42.919m.022 93.444c-.897 36.855 26.04 66.757 58.162 66.757s58.162-29.888 58.162-66.757c0 0-3.471-57.307-57.86-114.423-.158-.166-.405-.197-.554-.023-4.093 4.803-56.766 67.47-57.91 114.446z" data-original="#333333" style="stroke-width:21.688;stroke-linecap:round;stroke-linejoin:round;stroke-miterlimit:10"/><path fill="none" stroke="#000" stroke-linecap="round" stroke-linejoin="round" stroke-miterlimit="1" stroke-width="21.688" d="M684.386 413.831c-.613-7.479 0-74.251 0-74.251m254.512 7.493c-.897 36.855 26.04 66.757 58.162 66.757s58.162-29.888 58.162-66.757c0 0-3.471-57.307-57.86-114.423-.158-.166-.405-.197-.554-.023-4.094 4.803-56.766 67.47-57.91 114.446z" data-original="#333333" style="stroke-width:21.688;stroke-linecap:round;stroke-linejoin:round;stroke-miterlimit:10"/><path fill="none" stroke="#000" stroke-linecap="round" stroke-linejoin="round" stroke-miterlimit="1" stroke-width="21.688" d="M997.185 413.831c-.613-7.479 0-74.251 0-74.251" data-original="#333333" style="stroke-width:21.688;stroke-linecap:round;stroke-linejoin:round;stroke-miterlimit:10"/><g fill="#67b7d1" style="fill:none;stroke:#333;stroke-width:21.688;stroke-linecap:round;stroke-linejoin:round;stroke-miterlimit:10"><path d="M578.344 500.308c0-26.825 18.294-48.773 40.654-48.773h130.756c22.36 0 40.654 21.948 40.654 48.773m100.609 0c0-26.825 18.294-48.773 40.654-48.773h130.756c22.36 0 40.654 21.948 40.654 48.773m-606.26 166.303h691.273" data-original="#000000"/><circle cx="684.386" cy="583.46" r="44.582" data-original="#000000"/><circle cx="997.185" cy="583.46" r="44.582" data-original="#000000"/><path d="M1036.356 785.905H648.56c-15.242 0-27.713-12.471-27.713-27.713s12.471-27.713 27.713-27.713h387.796c15.242 0 27.713 12.471 27.713 27.713 0 15.243-12.471 27.713-27.713 27.713zm-371.259 4.812v180.736" data-original="#000000"/></g><path fill="none" stroke="#000" stroke-linecap="round" stroke-linejoin="round" stroke-miterlimit="1" stroke-width="21.688" d="M904.271 1075.779H501.547a4.74 4.74 0 0 1-4.726-4.726V505.06a4.74 4.74 0 0 1 4.726-4.726h681.821a4.74 4.74 0 0 1 4.726 4.726v225.424" data-original="#333333" style="stroke-width:21.688;stroke-linecap:round;stroke-linejoin:round;stroke-miterlimit:10"/></svg>