<svg xmlns="http://www.w3.org/2000/svg" xml:space="preserve" width="512" height="512" style="enable-background:new 0 0 512 512" viewBox="0 0 64 64"><path fill="#67b7d1" d="M36 14h10c1.1 0 2 .9 2 2v6H34v-6c0-1.1.9-2 2-2z" data-original="#56aaff"/><g stroke-miterlimit="10"><path stroke="#0478ed" stroke-linecap="round" stroke-width="4" d="M45 10h-8"/><path stroke="#d9dce1" stroke-width="10" d="M54 25H27.3C21.6 25 17 29.6 17 35.3V37"/></g><path fill="#67b7d1" d="M13.2 46.1c1.3 1.3 3.5 1.3 4.8 0 1.3-1.3 1.3-3.5 0-4.8l-2.4-2.4-2.4 2.4c-1.3 1.3-1.3 3.5 0 4.8zm3.4 9.7c1.3 1.3 3.5 1.3 4.9 0 1.3-1.3 1.3-3.5 0-4.9L19 48.5l-2.4 2.4c-1.4 1.3-1.4 3.5 0 4.9z" data-original="#56aaff"/></svg>