<svg xmlns="http://www.w3.org/2000/svg" xml:space="preserve" width="512" height="512" style="enable-background:new 0 0 512 512" viewBox="0 0 128 128"><g fill="#fff"><path d="M64.25 53.4h1.957a1.75 1.75 0 0 0 0-3.5H64.33l.7-4.608a1.75 1.75 0 1 0-3.461-.524l-.709 4.687a3.43 3.43 0 0 0 3.39 3.945Zm-.375 10.1a10.371 10.371 0 0 0 8.025-3.344 1.75 1.75 0 1 0-2.7-2.225A6.987 6.987 0 0 1 63.875 60a6.987 6.987 0 0 1-5.326-2.07 1.75 1.75 0 0 0-2.7 2.224 10.373 10.373 0 0 0 8.026 3.346Z" data-original="#000000"/><path d="M103.462 87.528c-.583-.16-1.22-.3-2.006-.455a62.065 62.065 0 0 0-6.652-.786 105.825 105.825 0 0 1-10.745-1.079 5.322 5.322 0 0 1-4.227-4.463l-.965-7.551a23.635 23.635 0 0 0 7.059-9.5 56.614 56.614 0 0 0 2.381-9.265 8.252 8.252 0 0 0 1.394.129 8.549 8.549 0 0 0 5.031-15.468 5.757 5.757 0 0 0 1.583-10.058l-5.573-4.159V16.75A16.769 16.769 0 0 0 73.992 0H54.008a16.769 16.769 0 0 0-16.75 16.75v8.123l-5.574 4.159a5.749 5.749 0 0 0 1.422 9.991 8.551 8.551 0 0 0 4.944 15.534 8.414 8.414 0 0 0 1.635-.169 56.934 56.934 0 0 0 2.391 9.312 23.623 23.623 0 0 0 7.058 9.5l-.965 7.551a5.358 5.358 0 0 1-4.39 4.495c-3.466.577-7.076.76-10.582 1.047a62.065 62.065 0 0 0-6.652.786c-.786.151-1.423.3-2.007.455a24.217 24.217 0 0 0-17.788 23.3v15.416A1.751 1.751 0 0 0 8.5 128h111a1.751 1.751 0 0 0 1.75-1.75v-15.417a24.217 24.217 0 0 0-17.788-23.305Zm-65.087 1.794 4.886-.48a25.867 25.867 0 0 0 41.245-.023l5.119.5v17.931h-51.25ZM89.7 51.057a4.854 4.854 0 0 1-.648-.044c.716-3.278 1.645-6.59 1.715-9.961A5.059 5.059 0 0 1 89.7 51.057ZM40.758 16.75A13.265 13.265 0 0 1 54.008 3.5h19.984a13.265 13.265 0 0 1 13.25 13.25V24H40.758Zm-6.981 15.086 5.812-4.336h48.822l5.811 4.336a2.25 2.25 0 0 1-1.346 4.054H35.124a2.251 2.251 0 0 1-1.347-4.054Zm40.485 8.581a.667.667 0 1 1-.666-.667.667.667 0 0 1 .666.667Zm-20.595 0A.667.667 0 1 1 53 39.75a.667.667 0 0 1 .667.667ZM38.05 51.057a5.059 5.059 0 0 1-.82-10.052c.064 3.376.993 6.691 1.71 9.972a4.976 4.976 0 0 1-.89.08Zm7.268 11.321c-1.27-3.133-1.757-6.646-2.475-9.936q-.764-3.494-1.525-6.987a28.143 28.143 0 0 1-.59-6.065h8.249a4.093 4.093 0 0 0-.144 1.027 4.167 4.167 0 0 0 8.334 0 4.093 4.093 0 0 0-.144-1.027h12.55a4.093 4.093 0 0 0-.144 1.027 4.167 4.167 0 1 0 8.19-1.027h9.653c0 5.817-1.8 11.629-3.042 17.3a34.518 34.518 0 0 1-1.547 5.689 20.181 20.181 0 0 1-37.365 0Zm6.323 18.81.74-5.79a23.8 23.8 0 0 0 23.238 0l.74 5.791a8.834 8.834 0 0 0 4.522 6.541 22.341 22.341 0 0 1-33.928.1 8.782 8.782 0 0 0 4.688-6.642ZM10.25 110.833A20.711 20.711 0 0 1 25.125 91v33.5H10.25Zm18.375-20.56c1.6-.232 3.249-.367 4.857-.5.462-.038.923-.075 1.393-.116V109a1.751 1.751 0 0 0 1.75 1.75h54.75a1.751 1.751 0 0 0 1.75-1.75V89.659q.693.06 1.393.116c1.608.131 3.259.266 4.857.5V124.5h-70.75ZM117.75 124.5h-14.875V91a20.711 20.711 0 0 1 14.875 19.834Z" data-original="#000000"/><path d="M62.7 6.744c-1.083 1.2-4.618 5.33-4.618 8.089a5.917 5.917 0 0 0 11.834 0c0-2.759-3.535-6.889-4.618-8.089a1.806 1.806 0 0 0-2.598 0ZM64 17.25a2.419 2.419 0 0 1-2.417-2.417c0-.666 1.034-2.417 2.416-4.191 1.3 1.673 2.418 3.467 2.418 4.191A2.419 2.419 0 0 1 64 17.25Z" data-original="#000000"/></g></svg>