<svg xmlns="http://www.w3.org/2000/svg" xml:space="preserve" width="512" height="512" style="enable-background:new 0 0 512 512" viewBox="0 0 200 200"><g fill="#67b7d1"><path d="M115.32 162.526h4.179c3.83 0 6.94 3.092 6.964 6.922l.05 8.407a1.393 1.393 0 0 0 1.393 1.384h25.02c.772 0 1.397-.628 1.392-1.4l-.134-22.403c-.07-11.489-9.402-20.766-20.891-20.766H115.32c-.769 0-1.392.624-1.392 1.393v25.07c0 .77.623 1.393 1.393 1.393zM84.68 134.67h-6.965a4.178 4.178 0 0 1-4.178-4.178V113.78c0-.77-.623-1.393-1.393-1.393h-25.07c-.769 0-1.392.623-1.392 1.393v27.855c0 11.539 9.353 20.892 20.891 20.892H84.68c.77 0 1.393-.624 1.393-1.393v-25.07c0-.77-.623-1.393-1.393-1.393zm20.284 34.82h-9.928a2 2 0 0 1-2-2v-37.784a2 2 0 0 1 2-2h9.928a2 2 0 0 1 2 2v37.784a2 2 0 0 1-2 2zM79.108 91.494H40.11c-.769 0-1.392.624-1.392 1.393v4.178c0 .77.623 1.393 1.392 1.393h5.572v5.188c0 .98.623 1.776 1.392 1.776h25.07c.77 0 1.393-.795 1.393-1.776v-5.188h5.571c.77 0 1.393-.623 1.393-1.393v-4.178c0-.77-.623-1.393-1.393-1.393zm80.782 101.209h-5.582l-.02-4.662c-.004-1.017-.626-1.838-1.392-1.838h-25.033c-.772 0-1.397.834-1.392 1.858l.019 4.642h-5.598c-.77 0-1.393.623-1.393 1.393v4.178c0 .77.623 1.393 1.393 1.393h38.997c.77 0 1.393-.624 1.393-1.393v-4.178c0-.77-.623-1.393-1.393-1.393z" data-original="#000000"/><path d="M192.073 100.25a6.938 6.938 0 0 1-4.785-1.906l-84.416-79.877a4.178 4.178 0 0 0-5.744 0L12.712 98.344a6.964 6.964 0 0 1-9.573-10.117L92.4 3.767c4.266-4.033 10.943-4.03 15.2-.002l89.262 84.462a6.963 6.963 0 0 1-4.788 12.022zm-54.228-77.237v-11.35c0-.77.623-1.394 1.392-1.394h25.07c.77 0 1.393.624 1.393 1.393V47.47c0 1.215-1.448 1.848-2.34 1.021l-24.178-22.414a4.179 4.179 0 0 1-1.337-3.064z" data-original="#000000"/></g></svg>