<svg xmlns="http://www.w3.org/2000/svg" xml:space="preserve" width="512" height="512" style="enable-background:new 0 0 512 512" viewBox="0 0 58 58"><g fill="none"><path fill="#bdc3c7" d="M51 22a2 2 0 0 0-2 2v4h4v-4a2 2 0 0 0-2-2z" data-original="#bdc3c7"/><path fill="#84b5cb" d="M58 27v30a1 1 0 0 1-1 1H24V45.15A13 13 0 0 0 30.15 39H42a2 2 0 0 0 2-2V27a1 1 0 0 1 1-1h12a1 1 0 0 1 1 1z" data-original="#84b5cb"/><circle cx="51" cy="32" r="2" fill="#65ddb9" data-original="#65ddb9"/><circle cx="51" cy="40" r="2" fill="#65ddb9" data-original="#65ddb9"/><path fill="#2980ba" d="M28 45.15V58H13a1 1 0 0 1-1-1V45.15z" data-original="#2980ba"/><path fill="#bdc3c7" d="M38.94 12H33c.455 1.3.79 2.639 1 4h4.94A1.07 1.07 0 0 0 40 14.94v-1.88A1.07 1.07 0 0 0 38.94 12z" data-original="#bdc3c7"/><path fill="#67b7d1" d="M7.72 7H6a2 2 0 0 1-2-2V2a2 2 0 0 1 2-2h28a2 2 0 0 1 2 2v3a2 2 0 0 1-2 2zM35 35c0 8.42-10.23 13.69-19.23 11.51C8.74 44.82 5 39.81 5 35l15-2z" data-original="#3b97d3"/><path fill="#ecf0f1" d="M32.92 31C40.58 18.24 33.13 0 20 0S-.6 18.2 7.08 31L20 33z" data-original="#ecf0f1"/><g fill="#84b5cb"><path d="M20 26a1 1 0 0 1-1-1v-4a3 3 0 0 0-6 0 1 1 0 0 1-2 0 5 5 0 0 1 10 0v4a1 1 0 0 1-1 1z" data-original="#84b5cb"/><path d="M20 22a1 1 0 0 1-1-1v-6a6 6 0 1 1 12 0 1 1 0 0 1-2 0 4 4 0 1 0-8 0v6a1 1 0 0 1-1 1z" data-original="#84b5cb"/><path d="M20 32a1 1 0 0 1-1-1v-6a4 4 0 0 1 4-4c3.81 0 5.1 5 3 5a1 1 0 0 1-1-1 2 2 0 1 0-4 0v6a1 1 0 0 1-1 1zm10-10a1 1 0 0 1-1-1v-2a1 1 0 0 1 2 0v2a1 1 0 0 1-1 1zm-18 6a1 1 0 0 1-1-1v-2a1 1 0 0 1 2 0v2a1 1 0 0 1-1 1z" data-original="#84b5cb"/></g><path fill="#bdc3c7" d="M38 35H2.08a2 2 0 1 1 0-4H38a2 2 0 1 1 0 4z" data-original="#bdc3c7"/></g></svg>