<svg xmlns="http://www.w3.org/2000/svg" xml:space="preserve" width="512" height="512" style="enable-background:new 0 0 512 512"><g fill="#fff" data-name="21 Emergency Call"><path d="M249.216 391.479a35.04 35.04 0 0 0-49.5 0 12.992 12.992 0 0 1-18.385 0l-60.811-60.811a13.015 13.015 0 0 1 0-18.385 34.98 34.98 0 0 0 0-49.5l-41.01-41.011a34.982 34.982 0 0 0-49.5 0A102.319 102.319 0 0 0 19.232 354.12a598.53 598.53 0 0 0 138.625 138.637 102.328 102.328 0 0 0 132.372-10.769 35.04 35.04 0 0 0 0-49.5zm29.7 79.2a86.385 86.385 0 0 1-111.745 9.072A582.622 582.622 0 0 1 32.243 344.808a86.368 86.368 0 0 1 9.084-111.721 18.988 18.988 0 0 1 26.87 0l41.012 41.013a18.989 18.989 0 0 1 0 26.87 29.032 29.032 0 0 0 0 41.011l60.811 60.811a28.982 28.982 0 0 0 41.012 0 19.02 19.02 0 0 1 26.87 0l41.012 41.008a19.024 19.024 0 0 1 .001 26.875z" data-original="#000000"/><path d="M440 0H152a72.081 72.081 0 0 0-72 72v128h16V72a56.063 56.063 0 0 1 56-56h288a56.063 56.063 0 0 1 56 56v184h-32v16h31.419a55.52 55.52 0 0 1-4.833 16H400v16h79.138A55.8 55.8 0 0 1 440 320h-72v8a56.1 56.1 0 0 1-44.792 54.873 29.756 29.756 0 0 0-1.624-29.033L300.434 320H152v16h139.566l16.45 26.32A14.164 14.164 0 0 1 296 384v16h16a72.107 72.107 0 0 0 71.559-64H440a72.081 72.081 0 0 0 72-72V72a72.081 72.081 0 0 0-72-72z" data-original="#000000"/><path d="M248 48v72h-72v96h72v72h96v-72h72v-96h-72V48zm152 88v64h-72v72h-64v-72h-72v-64h72V64h64v72zm32 120h16v16h-16z" data-original="#000000"/></g></svg>