<svg xmlns="http://www.w3.org/2000/svg" xml:space="preserve" width="512" height="512" style="enable-background:new 0 0 512 512" viewBox="0 0 510 510"><path fill="#67b7d1" d="M435 105h-12.5C330.141 105 255 180.14 255 272.5v65c0 18.55-9.679 34.872-24.244 44.212V395.5l94.494 46.75 16.852-3.547C362.782 410.256 375 375.281 375 337.5v-59c0-29.5 24-53.5 53.5-53.5h6.5l13-60z" data-original="#b3c7ef"/><path fill="#67b7d1" d="M150 30 90 46 30 30V0h120zM30 105v232.5a172.1 172.1 0 0 0 6.441 46.75l14.559 5 80.75-32.5L150 335.906V105L90 92z" data-original="#cfdbfd"/><path fill="#e6effb" d="M0 30h180v75H0z" data-original="#e6effb"/><path fill="#67b7d1" d="M435 75h75v180h-75z" data-original="#cfdbfd"/><path fill="#365f7f" d="M150 337.5v-1.594L135.727 345c-10.276 6.684-22.242 10.026-34.503 9.651-11.585-.351-22.675 4.455-30.903 12.619a59.948 59.948 0 0 1-25.322 14.983l-8.559 1.998C56.873 456.725 123.58 510 202.5 510l16.5-54.333L202.5 390c-28.949 0-52.5-23.552-52.5-52.5z" data-original="#365f7f"/><path fill="#2b4c60" d="M330 432.931a60.212 60.212 0 0 1-14.861-11.306c-7.676-7.996-18.562-11.954-29.639-11.576-18.416.628-35.302-7.093-46.858-20.049l-7.886-8.288A52.165 52.165 0 0 1 202.5 390v120c57.336 0 108.219-28.125 139.602-71.297z" data-original="#2b4c60"/></svg>