<svg xmlns="http://www.w3.org/2000/svg" xml:space="preserve" width="512" height="512" style="enable-background:new 0 0 512 512" viewBox="0 0 128 128"><g fill="#fff"><path d="M105.958 80.516a6.489 6.489 0 1 0 6.49 6.489 6.5 6.5 0 0 0-6.49-6.489Zm0 9.478a2.989 2.989 0 1 1 2.99-2.989 2.993 2.993 0 0 1-2.99 2.989Zm-81.124-9.478a6.489 6.489 0 1 0 6.49 6.489 6.5 6.5 0 0 0-6.49-6.489Zm0 9.478a2.989 2.989 0 1 1 2.99-2.989 2.993 2.993 0 0 1-2.99 2.989Z" data-original="#000000"/><path d="M106.25 46.442H87.417V29.255a1.749 1.749 0 0 0-1.75-1.75H1.75A1.749 1.749 0 0 0 0 29.255v57.75a1.749 1.749 0 0 0 1.75 1.75h9.721a13.475 13.475 0 0 0 26.726 0H92.6a13.475 13.475 0 0 0 26.725 0h6.929a1.749 1.749 0 0 0 1.75-1.75V68.192a21.775 21.775 0 0 0-21.754-21.75ZM3.5 31.005h80.417v54.25H38.211a13.658 13.658 0 0 0-13.377-11.739 13.657 13.657 0 0 0-13.376 11.739H3.5ZM24.834 97a9.99 9.99 0 1 1 9.99-9.99 10 10 0 0 1-9.99 9.99Zm81.124 0a9.99 9.99 0 1 1 9.99-9.99 10 10 0 0 1-9.99 9.99ZM124.5 85.255h-5.165a13.491 13.491 0 0 0-26.753 0h-5.165V49.942h18.833a18.271 18.271 0 0 1 18.25 18.25Z" data-original="#000000"/><path d="M24.834 69.016A17.962 17.962 0 0 1 35.4 72.468a18.393 18.393 0 0 1 5.878 7.249 1.75 1.75 0 0 0 1.6 1.038h34.789a1.749 1.749 0 0 0 1.75-1.75v-41.75a1.749 1.749 0 0 0-1.75-1.75H9.75A1.749 1.749 0 0 0 8 37.255v37.031a1.75 1.75 0 0 0 3.087 1.129 17.968 17.968 0 0 1 13.747-6.399Zm14.232 1.914 7.791-7.791a1.749 1.749 0 0 0 .442-1.731 9.2 9.2 0 0 1 2.317-9.1l.526-.526a9.424 9.424 0 0 1 7.078-2.76l-5.991 5.991a1.746 1.746 0 0 0-.441 1.73l1.408 4.8a1.75 1.75 0 0 0 1.186 1.186l4.8 1.409a1.754 1.754 0 0 0 1.73-.442L65.9 57.7a9.482 9.482 0 0 1-2.76 7.078l-.526.526a9.207 9.207 0 0 1-9.1 2.317 1.745 1.745 0 0 0-1.731.441l-8.29 8.29a21.726 21.726 0 0 0-4.427-5.422ZM11.5 39.005h64.417v38.25H47.542l6.018-6.017a12.7 12.7 0 0 0 11.527-3.458l.525-.525a12.99 12.99 0 0 0 2.98-13.692 1.749 1.749 0 0 0-2.877-.626l-7.548 7.547-2.882-.846-.847-2.883 7.547-7.547a1.749 1.749 0 0 0-.626-2.877 12.988 12.988 0 0 0-13.692 2.979l-.525.525a12.686 12.686 0 0 0-3.458 11.527l-7.445 7.446A21.432 21.432 0 0 0 11.5 70.162Zm94.75 14.437H92.667a1.75 1.75 0 0 0-1.75 1.75v10.375a1.749 1.749 0 0 0 1.75 1.75h26.316a1.749 1.749 0 0 0 1.714-2.1 14.8 14.8 0 0 0-14.447-11.775ZM94.417 63.817v-6.875h11.833a11.3 11.3 0 0 1 10.364 6.875Z" data-original="#000000"/><path d="M30.132 54.081c0-3.434-4.8-8.926-5.764-9.992a1.8 1.8 0 0 0-2.6 0c-.963 1.066-5.764 6.558-5.764 9.992a7.063 7.063 0 1 0 14.125 0Zm-7.063 3.563a3.566 3.566 0 0 1-3.562-3.563c0-1.136 1.677-3.777 3.562-6.12 1.886 2.343 3.563 4.984 3.563 6.12a3.567 3.567 0 0 1-3.563 3.563Z" data-original="#000000"/></g></svg>